<svg xmlns="http://www.w3.org/2000/svg" xmlns:xlink="http://www.w3.org/1999/xlink" xml:space="preserve" version="1.0" style="shape-rendering:geometricPrecision;text-rendering:geometricPrecision;image-rendering:optimizeQuality;" viewBox="0 0 10000 12500" x="0px" y="0px" fill-rule="evenodd" clip-rule="evenodd"><defs><style type="text/css">
   
    .fil0 {fill:#E2E8F0;fill-rule:nonzero}
   
  </style></defs><g><path class="fil0" d="M2780 7711l0 1101c0,251 -381,251 -381,0l0 -1101c-281,0 -619,63 -619,-191l0 -1238c0,-253 338,-190 619,-190l0 -4904c0,-251 381,-251 381,0l0 4904c281,0 619,-63 619,190l0 1238c0,254 -338,191 -619,191zm-190 -1238l-429 0 0 857 857 0 0 -857 -428 0z"/><path class="fil0" d="M5190 5824l0 2917c0,250 -381,250 -381,0l0 -2917c-281,0 -619,63 -619,-190l0 -1238c0,-254 338,-191 619,-191l0 -2969c0,-251 381,-251 381,0l0 2969c281,0 619,-63 619,191l0 1238c0,253 -338,190 -619,190zm-190 -1237l-429 0 0 856c286,0 572,0 857,0l0 -856 -428 0z"/><path class="fil0" d="M7220 2289l0 -1101c0,-251 381,-251 381,0l0 1101c281,0 619,-63 619,191l0 1238c0,253 -338,190 -619,190l0 4904c0,251 -381,251 -381,0l0 -4904c-281,0 -619,63 -619,-190l0 -1238c0,-254 338,-191 619,-191zm-238 1238l857 0 0 -857 -857 0 0 857z"/></g></svg>