<?xml version="1.0" encoding="UTF-8"?>
<svg width="700pt" height="700pt" version="1.1" viewBox="0 0 700 700" xmlns="http://www.w3.org/2000/svg" xmlns:xlink="http://www.w3.org/1999/xlink">
 <g>
  <path fill="#CBD5E0" d="m445.18 394.57c-2.8398 3.4844-6.9492 5.6953-11.418 6.1445-4.4727 0.45312-8.9375-0.89063-12.418-3.7383l-106.49-86.957c-3.9414-3.2148-6.2266-8.0273-6.2266-13.113v-170.5c0.11328-5.9727 3.3633-11.445 8.5586-14.402 5.1914-2.9531 11.559-2.9531 16.754 0 5.1914 2.957 8.4453 8.4297 8.5586 14.402v162.46l100.27 81.891v0.003906c3.4766 2.8398 5.6836 6.9414 6.1367 11.41s-0.89062 8.9297-3.7266 12.41zm-95.184 122.53c62.883 0 123.19-24.98 167.65-69.445s69.445-104.77 69.445-167.65-24.98-123.19-69.445-167.65-104.77-69.445-167.65-69.445-123.19 24.98-167.65 69.445-69.445 104.77-69.445 167.65c0.074218 62.859 25.078 123.12 69.527 167.57 44.445 44.449 104.71 69.453 167.57 69.527zm0-508.07c-71.863 0-140.79 28.551-191.6 79.367-50.816 50.816-79.367 119.74-79.367 191.6s28.551 140.79 79.367 191.6c50.816 50.816 119.74 79.367 191.6 79.367s140.79-28.551 191.6-79.367c50.816-50.816 79.367-119.74 79.367-191.6-0.082031-71.84-28.656-140.71-79.453-191.52-50.801-50.797-119.68-79.371-191.52-79.453z" fill-rule="evenodd"/>
  <use x="70" y="650.324219" xlink:href="#t"/>
  <use x="92.09375" y="650.324219" xlink:href="#d"/>
  <use x="106.945312" y="650.324219" xlink:href="#a"/>
  <use x="127.363281" y="650.324219" xlink:href="#e"/>
  <use x="147.679688" y="650.324219" xlink:href="#c"/>
  <use x="162.070312" y="650.324219" xlink:href="#a"/>
  <use x="182.492188" y="650.324219" xlink:href="#l"/>
  <use x="214.523437" y="650.324219" xlink:href="#k"/>
  <use x="236.078125" y="650.324219" xlink:href="#j"/>
  <use x="266.183594" y="650.324219" xlink:href="#i"/>
  <use x="276.503906" y="650.324219" xlink:href="#h"/>
  <use x="294.351562" y="650.324219" xlink:href="#b"/>
  <use x="315.035156" y="650.324219" xlink:href="#g"/>
  <use x="336.46875" y="650.324219" xlink:href="#f"/>
  <use x="367.839844" y="650.324219" xlink:href="#e"/>
  <use x="388.15625" y="650.324219" xlink:href="#s"/>
  <use x="70" y="680.429688" xlink:href="#r"/>
  <use x="83.097656" y="680.429688" xlink:href="#d"/>
  <use x="97.945312" y="680.429688" xlink:href="#b"/>
  <use x="118.628906" y="680.429688" xlink:href="#f"/>
  <use x="160.484375" y="680.429688" xlink:href="#c"/>
  <use x="174.875" y="680.429688" xlink:href="#q"/>
  <use x="196.308594" y="680.429688" xlink:href="#a"/>
  <use x="227.210937" y="680.429688" xlink:href="#p"/>
  <use x="252.410156" y="680.429688" xlink:href="#b"/>
  <use x="273.09375" y="680.429688" xlink:href="#o"/>
  <use x="294.527344" y="680.429688" xlink:href="#g"/>
  <use x="326.441406" y="680.429688" xlink:href="#n"/>
  <use x="348.507812" y="680.429688" xlink:href="#d"/>
  <use x="363.355469" y="680.429688" xlink:href="#b"/>
  <use x="384.042969" y="680.429688" xlink:href="#m"/>
  <use x="394.363281" y="680.429688" xlink:href="#a"/>
  <use x="414.78125" y="680.429688" xlink:href="#h"/>
  <use x="432.628906" y="680.429688" xlink:href="#c"/>
 </g>
</svg>
