<svg xmlns="http://www.w3.org/2000/svg" viewBox="0 0 100 125" x="0px" y="0px"><path fill='#E2E8F0' d="m 35.950001,32.999999 c -2.648269,0 -4.850001,2.201697 -4.850001,4.850003 0,2.648303 2.201732,4.849997 4.850001,4.849997 2.648265,0 4.850001,-2.201694 4.850001,-4.849997 0,-2.648306 -2.201736,-4.850003 -4.850001,-4.850003 z" color="#000"/><path fill='#E2E8F0' d="m 64.050003,32.999999 c -2.648261,0 -4.850001,2.201697 -4.850001,4.850003 0,2.648303 2.20174,4.849997 4.850001,4.849997 2.64826,0 4.85,-2.201694 4.85,-4.849997 0,-2.648306 -2.20174,-4.850003 -4.85,-4.850003 z" color="#000"/><path fill='#E2E8F0' d="m 50,5.000002 c -24.822609,0 -45.0000002,20.177387 -45.0000002,45 0,24.822612 20.1773912,44.999999 45.0000002,44.999999 24.822613,0 45.000003,-20.177387 45.000003,-44.999999 0,-24.822613 -20.17739,-45 -45.000003,-45 z m 0,5.459883 c 21.867612,0 39.540121,17.672505 39.540121,39.540117 0,21.867611 -17.672509,39.540117 -39.540121,39.540117 -21.867607,0 -39.540117,-17.672506 -39.540117,-39.540117 0,-21.867612 17.67251,-39.540117 39.540117,-39.540117 z" color="#000"/><path fill='#E2E8F0' d="m 50.000004,56.715965 c -8.291431,0.0163 -16.617106,3.800707 -21.531254,11.436059 -0.960864,1.49294 -0.797396,3.394722 0.5625,4.170203 1.440581,0.821491 3.082979,0.23811 3.96875,-1.122747 3.832891,-5.88859 10.418215,-8.821456 17,-8.837709 6.581785,-0.0163 13.167117,2.916872 17.000001,8.805462 0.88578,1.360853 2.528167,1.976318 3.968748,1.154827 1.359896,-0.775481 1.523367,-2.709336 0.5625,-4.202281 C 66.6171,60.484424 58.291431,56.699712 50.000004,56.715965 z" color="#000"/></svg>