<?xml version="1.0" encoding="UTF-8"?>
<svg width="700pt" height="700pt" version="1.1" viewBox="0 0 700 700" xmlns="http://www.w3.org/2000/svg" xmlns:xlink="http://www.w3.org/1999/xlink">
 <g>
  <path fill="#CBD5E0" d="m253.64 455.12c0 0.14062-0.035156 0.27344-0.039063 0.41016h192.78c0-0.13281-0.035156-0.26953-0.035156-0.41016 0-54.086-24.332-118.16-65.105-131.79l-61.777-0.23047c-41.207 13.188-65.824 77.469-65.824 132.02z"/>
  <path fill="#CBD5E0" d="m576.8 60.512c0-16.969-13.77-30.727-30.727-30.727h-392.15c-16.969 0-30.727 13.758-30.727 30.727s13.758 30.727 30.727 30.727h36.625c0 0.16406-0.039062 0.32031-0.039062 0.48047 0 56.969 22.008 150.34 78.992 192.54-38.641 28.414-78.992 88.871-78.992 184 0 0.16797 0.039062 0.32422 0.050781 0.49219h-36.637c-16.969 0-30.727 13.766-30.727 30.727 0 16.969 13.758 30.727 30.727 30.727h392.15c16.957 0 30.727-13.758 30.727-30.727 0-16.961-13.77-30.727-30.727-30.727h-36.641c0-0.16797 0.050781-0.32422 0.050781-0.49219 0-56.746-21.43-144.52-78.242-184.56 56.449-42.492 78.242-135.51 78.242-191.98 0-0.16406-0.050781-0.32031-0.050781-0.48047h36.641c16.957 0.007813 30.727-13.754 30.727-30.723zm-111.21 31.211c0 66.461-29.988 149.07-78.449 166.63-8.5352 3.1016-14.285 11.145-14.453 20.234l-0.18359 10.367c-0.17188 9.5938 5.8984 18.184 14.984 21.219 48.883 16.328 78.102 93.207 78.102 158.09 0 0.16797 0.035156 0.32422 0.054687 0.49219l-231.29-0.007812c0.003906-0.16797 0.050781-0.32422 0.050781-0.49219 0-65.43 29.535-142.55 78.965-158.38 9.0664-2.9023 15.227-11.312 15.262-20.828l0.035157-9.5156c0.035156-9.3984-5.9141-17.762-14.801-20.828-38.215-13.172-79.457-80.762-79.457-167 0-0.16406-0.039062-0.32031-0.039062-0.48047h231.26c-0.011718 0.17969-0.039062 0.32812-0.039062 0.49219z"/>
  <use x="70" y="644" xlink:href="#x"/>
  <use x="90.550781" y="644" xlink:href="#c"/>
  <use x="104.359375" y="644" xlink:href="#a"/>
  <use x="123.347656" y="644" xlink:href="#f"/>
  <use x="142.242188" y="644" xlink:href="#b"/>
  <use x="155.628906" y="644" xlink:href="#a"/>
  <use x="174.617188" y="644" xlink:href="#j"/>
  <use x="204.410156" y="644" xlink:href="#i"/>
  <use x="224.453125" y="644" xlink:href="#h"/>
  <use x="252.453125" y="644" xlink:href="#g"/>
  <use x="273.792969" y="644" xlink:href="#e"/>
  <use x="283.390625" y="644" xlink:href="#f"/>
  <use x="302.285156" y="644" xlink:href="#w"/>
  <use x="311.882812" y="644" xlink:href="#v"/>
  <use x="328.546875" y="644" xlink:href="#a"/>
  <use x="357.289062" y="644" xlink:href="#u"/>
  <use x="377.453125" y="644" xlink:href="#a"/>
  <use x="396.445312" y="644" xlink:href="#t"/>
  <use x="422.3125" y="644" xlink:href="#a"/>
  <use x="441.300781" y="644" xlink:href="#e"/>
  <use x="450.898438" y="644" xlink:href="#e"/>
  <use x="70" y="672" xlink:href="#s"/>
  <use x="82.183594" y="672" xlink:href="#c"/>
  <use x="95.992188" y="672" xlink:href="#d"/>
  <use x="115.226562" y="672" xlink:href="#r"/>
  <use x="154.152344" y="672" xlink:href="#b"/>
  <use x="167.535156" y="672" xlink:href="#q"/>
  <use x="187.46875" y="672" xlink:href="#a"/>
  <use x="216.207031" y="672" xlink:href="#p"/>
  <use x="239.640625" y="672" xlink:href="#d"/>
  <use x="258.878906" y="672" xlink:href="#o"/>
  <use x="278.8125" y="672" xlink:href="#n"/>
  <use x="308.492188" y="672" xlink:href="#m"/>
  <use x="329.015625" y="672" xlink:href="#c"/>
  <use x="342.820312" y="672" xlink:href="#d"/>
  <use x="362.058594" y="672" xlink:href="#l"/>
  <use x="371.65625" y="672" xlink:href="#a"/>
  <use x="390.648438" y="672" xlink:href="#k"/>
  <use x="407.242188" y="672" xlink:href="#b"/>
 </g>
</svg>
