<svg xmlns="http://www.w3.org/2000/svg" viewBox="0 0 64 80" x="0px" y="0px"><g data-name="Layer 1"><path fill='#E2E8F0' d="M60,41.47675V24.29248a.99974.99974,0,0,0-1-1H54a.99974.99974,0,0,0-1,1v1H51v-4a.99974.99974,0,0,0-1-1H44a.99974.99974,0,0,0-1,1v20H38V39.09937a1.99066,1.99066,0,0,0,2-1.98953c.42875-3.68661-2.9792-3.11754-5.525-3.2244a9.71617,9.71617,0,0,0-7.49109-6.43384c.02523-.10441.01419-.72806.01611-.84668a7.01769,7.01769,0,0,0,3.812-4.72919c6.3661-7.92643-.53454-18.14893-11.90283-12.66382C13.13376,8.03908,14.80874,16.75048,17,19.58563a7.13884,7.13884,0,0,0,4,7.01929c.002.12272-.0092.73856.01611.84668a9.71626,9.71626,0,0,0-7.49127,6.4342c-1.87886.12433-5.3865-.45061-5.52491,2.23715L8,37.10986a1.99058,1.99058,0,0,0,2,1.98963v2.193H5a3.00019,3.00019,0,0,0,0,6v6a3.00328,3.00328,0,0,0,3,3h2a2.99507,2.99507,0,0,0,2.81573-2h38.3686a2.995,2.995,0,0,0,2.81567,2h2a3.00328,3.00328,0,0,0,3-3v-6A2.99957,2.99957,0,0,0,60,41.47675Zm-9-.18427v-11h2v11Zm4-13h3v13H55Zm0-3h3v1H55Zm-2,2v1H51v-1Zm-4-5v2H45v-2Zm-4,4h4v15H45ZM12,38.95557A16.38085,16.38085,0,0,1,20.92542,41.29H12ZM27.07458,41.29A16.3792,16.3792,0,0,1,36,38.95575V41.29Zm10.941-4.17969A18.79156,18.79156,0,0,0,25,40.24365v-1.416a18.42916,18.42916,0,0,1,13-2.70459ZM23,27.29248h2A1.00019,1.00019,0,0,1,23,27.29248ZM17.50391,11.15625c.43957-.3343,1.40905.38412,1.97168.01615,4.53027-2.4473,9.08789-1.53715,10.71484.70651,1.458,2.01416.83594,5.18115.83008,5.21435-.04785.2334-.10547.45752-.16992.67285A1.1005,1.1005,0,0,0,30,17.29006a7.25888,7.25888,0,0,1-7.13272-3.49629,1.00423,1.00423,0,0,0-1.10946-.4715l-4.001,1a1.25186,1.25186,0,0,0-.63086.48339C16.99959,13.75518,16.75359,11.86172,17.50391,11.15625ZM19,20.29v-4.2168l2.542-.63574A9.02284,9.02284,0,0,0,29,19.34766C29.67664,26.59666,19.451,27.50514,19,20.29Zm2.84119,9.07623a3.0126,3.0126,0,0,0,4.31762,0,7.71511,7.71511,0,0,1,6.23633,4.6872A19.99035,19.99035,0,0,0,24,37.11859a19.98728,19.98728,0,0,0-8.3952-3.065A7.71522,7.71522,0,0,1,21.84119,29.36627ZM16.794,36.271A18.32532,18.32532,0,0,1,23,38.82764v1.416a18.7262,18.7262,0,0,0-13-3.13379L9.98828,36.124A18.40457,18.40457,0,0,1,16.794,36.271ZM10,54.29248H8a1.001,1.001,0,0,1-1-1v-6h4v6A1.001,1.001,0,0,1,10,54.29248Zm3-7H51v5H13Zm44,6a1.001,1.001,0,0,1-1,1H54a1.001,1.001,0,0,1-1-1v-6h4Zm2-8H5a1.00012,1.00012,0,0,1,.00006-2l53.99994,0A1.00013,1.00013,0,0,1,59,45.29248Z"/><path fill='#E2E8F0' d="M47,32.29248a.99974.99974,0,0,0-1,1v3a1,1,0,0,0,2,0v-3A.99974.99974,0,0,0,47,32.29248Z"/></g></svg>