<?xml version="1.0" encoding="UTF-8"?>
<svg width="700pt" height="700pt" version="1.1" viewBox="0 0 700 700" xmlns="http://www.w3.org/2000/svg" xmlns:xlink="http://www.w3.org/1999/xlink">
 <g>
  <path fill="#CBD5E0" d="m568.75 455h-43.75v-341.25c0.039062-19.758-16.414-35.613-36.137-35 6.1445-22.051-12.18-45.062-35.438-43.75-3.5859-10.148-13.301-17.5-24.676-17.5h-175c-11.375 0-21.086 7.3516-24.676 17.5-23.258-1.3125-41.582 21.699-35.438 43.75-19.719-0.60547-36.18 15.234-36.137 35v376.25c-0.40234 25.594 19.379 47.117 43.75 52.5h332.5c28.172 0.39844 53.07-24.109 52.5-52.5 0-11.551-3.6758-22.488-10.5-31.5-1.6641-2.1875-4.2891-3.5-7-3.5zm-113.75-402.5c23.02 0.61328 23.117 34.352 0 35zm-210-8.75c0-4.8125 3.9375-8.75 8.75-8.75h175c4.8125 0 8.75 3.9375 8.75 8.75v52.5c0 4.8125-3.9375 8.75-8.75 8.75h-175c-4.8125 0-8.75-3.9375-8.75-8.75zm-17.5 8.75v35c-23.133-0.65625-23-34.398 0-35zm280 402.5h-262.68c-6.9766-0.27344-11.352 8.6133-7 14 17.645 21.879 0.48438 56.676-27.824 56-19.016 0.21875-35.195-16.047-35-35v-376.25c0-9.625 7.875-17.5 17.5-17.5h11.898c6.543 5.7891 15.406 9.0977 24.676 8.75 3.5859 10.148 13.301 17.5 24.676 17.5h175c11.375 0 21.086-7.3516 24.676-17.5 9.2695 0.34766 18.129-2.9609 24.676-8.75h11.898c9.625 0 17.5 7.875 17.5 17.5z"/>
  <path fill="#CBD5E0" d="m163.53 69.996c3.6758-2.4492 7.6133-4.375 11.812-5.8633 0.4375-3.9375 1.3125-7.875 2.7109-11.637h-20.562c-24.148 0-43.75 19.602-43.75 43.75l0.003906 367.5c0 18.551 11.551 34.387 27.824 40.773-1.0508-4.7266-1.5742-9.625-1.5742-14.523v-376.25c0-18.199 9.3633-34.387 23.539-43.75z"/>
  <path fill="#CBD5E0" d="m568.75 437.5v-341.25c0-24.148-19.602-43.75-43.75-43.75h-20.562c1.3984 3.7617 2.2734 7.6992 2.7109 11.637 20.652 7.1914 35.336 26.719 35.352 49.613v323.75z"/>
  <path fill="#CBD5E0" d="m335.06 168.81-10.715 10.715c-30.941-53.637-113.92-32.324-114.35 30.473 0 33.773 27.477 61.25 61.25 61.25 38.285 0.46094 68.223-36.438 59.938-73.762-0.011719-0.039062 16.25-16.301 16.25-16.301 8.0391-8.1094-4.2344-20.441-12.371-12.371zm-107.56 41.184c0.28906-47.383 65.09-60.168 83.902-17.523l-31.402 31.402-20.062-20.062c-8.1133-8.0508-20.438 4.2422-12.371 12.371l26.25 26.25c3.418 3.418 8.957 3.418 12.371 0 0 0 28.555-28.555 28.551-28.5-6.1641 54.902-85.809 51.52-87.238-3.9375z"/>
  <path fill="#CBD5E0" d="m463.75 201.25h-78.75c-11.477 0.18359-11.52 17.309 0 17.5h78.75c11.477-0.18359 11.52-17.309 0-17.5z"/>
  <path fill="#CBD5E0" d="m335.06 317.56-10.715 10.715c-30.941-53.637-113.92-32.324-114.35 30.473 0 33.773 27.477 61.25 61.25 61.25 38.285 0.46094 68.223-36.438 59.938-73.762-0.011719-0.039062 16.25-16.301 16.25-16.301 8.0391-8.1094-4.2344-20.441-12.371-12.371zm-107.56 41.184c0.28906-47.383 65.09-60.168 83.902-17.523l-31.402 31.402-20.062-20.062c-8.1133-8.0508-20.438 4.2422-12.371 12.371l26.25 26.25c3.418 3.418 8.957 3.418 12.371 0 0 0 28.555-28.555 28.551-28.5-6.1641 54.902-85.809 51.52-87.238-3.9375z"/>
  <path fill="#CBD5E0" d="m463.75 350h-78.75c-11.477 0.18359-11.52 17.309 0 17.5h78.75c11.477-0.18359 11.52-17.309 0-17.5z"/>
  <use x="70" y="691.25" xlink:href="#p"/>
  <use x="102.109375" y="691.25" xlink:href="#j"/>
  <use x="123.683594" y="691.25" xlink:href="#b"/>
  <use x="153.355469" y="691.25" xlink:href="#i"/>
  <use x="182.878906" y="691.25" xlink:href="#h"/>
  <use x="203.792969" y="691.25" xlink:href="#b"/>
  <use x="233.464844" y="691.25" xlink:href="#g"/>
  <use x="280.011719" y="691.25" xlink:href="#f"/>
  <use x="311.328125" y="691.25" xlink:href="#e"/>
  <use x="355.078125" y="691.25" xlink:href="#a"/>
  <use x="382.957031" y="691.25" xlink:href="#o"/>
  <use x="418.484375" y="691.25" xlink:href="#n"/>
  <use x="448.328125" y="691.25" xlink:href="#m"/>
  <use x="478.210937" y="691.25" xlink:href="#d"/>
  <use x="509.722656" y="691.25" xlink:href="#l"/>
  <use x="545.632812" y="691.25" xlink:href="#c"/>
  <use x="579.492188" y="691.25" xlink:href="#k"/>
  <use x="616.105469" y="691.25" xlink:href="#d"/>
  <use x="647.617188" y="691.25" xlink:href="#c"/>
  <use x="681.476562" y="691.25" xlink:href="#a"/>
 </g>
</svg>
