<svg xmlns="http://www.w3.org/2000/svg" xmlns:xlink="http://www.w3.org/1999/xlink" version="1.1" x="0px" y="0px" viewBox="0 0 82.609 125" enable-background="new 0 0 82.609 100" xml:space="preserve"><g><path fill="#fff" d="M80.435,0H2.174C0.972,0,0,0.973,0,2.174v95.652C0,99.027,0.972,100,2.174,100h78.261   c1.202,0,2.174-0.973,2.174-2.174V2.174C82.609,0.973,81.636,0,80.435,0z M78.261,4.348v91.304H4.348V4.348H78.261z"/><path fill="#fff" d="M10.87,58.696h13.043c1.202,0,2.174-0.973,2.174-2.174V43.478c0-1.201-0.972-2.174-2.174-2.174H10.87   c-1.202,0-2.174,0.973-2.174,2.174v13.043C8.696,57.722,9.668,58.696,10.87,58.696z M13.043,45.652h8.696v8.696h-8.696V45.652z"/><path fill="#fff" d="M10.87,34.783h13.043c1.202,0,2.174-0.973,2.174-2.174V19.565c0-1.201-0.972-2.174-2.174-2.174h-1.051   l0.478-1.91c0.144-0.583-0.208-1.173-0.792-1.318c-0.58-0.152-1.172,0.208-1.318,0.79l-0.61,2.438h-9.75   c-1.202,0-2.174,0.973-2.174,2.174v13.043C8.696,33.809,9.668,34.783,10.87,34.783z M13.043,21.739h6.487l-1.014,4.049   l-1.606-2.219c-0.355-0.489-1.032-0.594-1.518-0.244c-0.486,0.352-0.597,1.032-0.244,1.518l2.722,3.762   c0.054,0.075,0.133,0.114,0.2,0.17c0.14,0.259,0.377,0.463,0.685,0.54c0.087,0.022,0.176,0.033,0.263,0.033   c0.488,0,0.93-0.329,1.055-0.823l1.664-6.649v8.559h-8.696V21.739z"/><path fill="#fff" d="M10.87,82.609h13.043c1.202,0,2.174-0.973,2.174-2.174V67.391c0-1.201-0.972-2.174-2.174-2.174H10.87   c-1.202,0-2.174,0.973-2.174,2.174v13.043C8.696,81.635,9.668,82.609,10.87,82.609z M13.043,69.565h8.696v8.696h-8.696V69.565z"/><path fill="#fff" d="M34.783,28.261H60.87c1.202,0,2.174-0.973,2.174-2.174s-0.972-2.174-2.174-2.174H34.783   c-1.202,0-2.174,0.973-2.174,2.174S33.581,28.261,34.783,28.261z"/><path fill="#fff" d="M60.878,47.826H34.791c-1.202,0-2.174,0.973-2.174,2.174s0.972,2.174,2.174,2.174h26.087   c1.202,0,2.174-0.973,2.174-2.174S62.08,47.826,60.878,47.826z"/><path fill="#fff" d="M34.783,76.087H60.87c1.202,0,2.174-0.973,2.174-2.174c0-1.201-0.972-2.174-2.174-2.174H34.783   c-1.202,0-2.174,0.973-2.174,2.174C32.609,75.114,33.581,76.087,34.783,76.087z"/></g></svg>